<svg id="visual" viewBox="0 0 900 600" width="900" height="600" xmlns="http://www.w3.org/2000/svg" xmlns:xlink="http://www.w3.org/1999/xlink" version="1.1"><rect x="0" y="0" width="900" height="600" fill="#001122"></rect><path d="M0 277L30 288C60 299 120 321 180 338.7C240 356.3 300 369.7 360 350.7C420 331.7 480 280.3 540 277C600 273.7 660 318.3 720 331.5C780 344.7 840 326.3 870 317.2L900 308L900 0L870 0C840 0 780 0 720 0C660 0 600 0 540 0C480 0 420 0 360 0C300 0 240 0 180 0C120 0 60 0 30 0L0 0Z" fill="#88A1E2" stroke-linecap="round" stroke-linejoin="miter"></path></svg>