<svg id="visual" viewBox="0 0 960 540" width="960" height="540" xmlns="http://www.w3.org/2000/svg" xmlns:xlink="http://www.w3.org/1999/xlink" version="1.1"><path d="M0 216L22.8 215.7C45.7 215.3 91.3 214.7 137 206C182.7 197.3 228.3 180.7 274 176.3C319.7 172 365.3 180 411.2 178.2C457 176.3 503 164.7 548.8 162.5C594.7 160.3 640.3 167.7 686 173.2C731.7 178.7 777.3 182.3 823 183.5C868.7 184.7 914.3 183.3 937.2 182.7L960 182L960 0L937.2 0C914.3 0 868.7 0 823 0C777.3 0 731.7 0 686 0C640.3 0 594.7 0 548.8 0C503 0 457 0 411.2 0C365.3 0 319.7 0 274 0C228.3 0 182.7 0 137 0C91.3 0 45.7 0 22.8 0L0 0Z" fill="#fbb348"></path><path d="M0 125L22.8 126.3C45.7 127.7 91.3 130.3 137 125.8C182.7 121.3 228.3 109.7 274 109.7C319.7 109.7 365.3 121.3 411.2 128.3C457 135.3 503 137.7 548.8 128.3C594.7 119 640.3 98 686 97.7C731.7 97.3 777.3 117.7 823 131.2C868.7 144.7 914.3 151.3 937.2 154.7L960 158L960 0L937.2 0C914.3 0 868.7 0 823 0C777.3 0 731.7 0 686 0C640.3 0 594.7 0 548.8 0C503 0 457 0 411.2 0C365.3 0 319.7 0 274 0C228.3 0 182.7 0 137 0C91.3 0 45.7 0 22.8 0L0 0Z" fill="#ff8bb6"></path><path d="M0 97L22.8 95C45.7 93 91.3 89 137 84.2C182.7 79.3 228.3 73.7 274 65C319.7 56.3 365.3 44.7 411.2 40.8C457 37 503 41 548.8 51.5C594.7 62 640.3 79 686 79.5C731.7 80 777.3 64 823 61.5C868.7 59 914.3 70 937.2 75.5L960 81L960 0L937.2 0C914.3 0 868.7 0 823 0C777.3 0 731.7 0 686 0C640.3 0 594.7 0 548.8 0C503 0 457 0 411.2 0C365.3 0 319.7 0 274 0C228.3 0 182.7 0 137 0C91.3 0 45.7 0 22.8 0L0 0Z" fill="#88a1e2"></path></svg>